<svg width="30" height="30" viewBox="0 0 30 30" fill="none" xmlns="http://www.w3.org/2000/svg">
<g clip-path="url(#clip0_1_35)" filter="url(#filter0_d_1_35)">
<path d="M25.9785 6.46806C25.927 5.29912 25.738 4.49548 25.4672 3.79911C25.1878 3.05994 24.758 2.39816 24.195 1.84802C23.6448 1.28931 22.9787 0.855178 22.2481 0.580191C21.5477 0.309402 20.7482 0.12037 19.5793 0.0688306C18.4016 0.0129267 18.0278 0 15.0408 0C12.0539 0 11.6801 0.0129267 10.5068 0.0644657C9.33781 0.116005 8.53417 0.305205 7.83798 0.575827C7.09864 0.855178 6.43685 1.28495 5.88671 1.84802C5.32801 2.39816 4.89404 3.0643 4.61889 3.79492C4.3481 4.49548 4.15907 5.29475 4.10753 6.4637C4.05162 7.64137 4.0387 8.01524 4.0387 11.0021C4.0387 13.9891 4.05162 14.3629 4.10316 15.5362C4.1547 16.7052 4.3439 17.5088 4.61469 18.2052C4.89404 18.9444 5.32801 19.6061 5.88671 20.1563C6.43685 20.715 7.103 21.1491 7.83361 21.4241C8.53417 21.6949 9.33345 21.8839 10.5026 21.9355C11.6757 21.9872 12.0497 21.9999 15.0366 21.9999C18.0236 21.9999 18.3974 21.9872 19.5707 21.9355C20.7397 21.8839 21.5433 21.6949 22.2395 21.4241C23.718 20.8525 24.887 19.6835 25.4586 18.2052C25.7292 17.5046 25.9184 16.7052 25.97 15.5362C26.0215 14.3629 26.0344 13.9891 26.0344 11.0021C26.0344 8.01524 26.0301 7.64137 25.9785 6.46806ZM23.9974 15.4503C23.95 16.5247 23.7696 17.1049 23.6192 17.4917C23.2495 18.4501 22.4888 19.2108 21.5304 19.5805C21.1436 19.7309 20.5592 19.9113 19.489 19.9585C18.3286 20.0102 17.9806 20.023 15.0452 20.023C12.1098 20.023 11.7575 20.0102 10.6013 19.9585C9.52684 19.9113 8.94665 19.7309 8.55986 19.5805C8.08291 19.4042 7.64878 19.1248 7.2964 18.7595C6.93109 18.4028 6.65174 17.973 6.47547 17.4961C6.32505 17.1093 6.14458 16.5247 6.0974 15.4546C6.0457 14.2943 6.03294 13.9461 6.03294 11.0107C6.03294 8.07534 6.0457 7.72296 6.0974 6.56694C6.14458 5.49251 6.32505 4.91232 6.47547 4.52553C6.65174 4.04841 6.93109 3.61445 7.30076 3.2619C7.65734 2.89659 8.08711 2.61724 8.56422 2.44114C8.95102 2.29072 9.53557 2.11024 10.6056 2.0629C11.766 2.01136 12.1142 1.99844 15.0494 1.99844C17.9891 1.99844 18.3372 2.01136 19.4933 2.0629C20.5678 2.11024 21.148 2.29072 21.5348 2.44114C22.0117 2.61724 22.4458 2.89659 22.7982 3.2619C23.1635 3.61864 23.4429 4.04841 23.6192 4.52553C23.7696 4.91232 23.95 5.49671 23.9974 6.56694C24.0489 7.72732 24.0619 8.07534 24.0619 11.0107C24.0619 13.9461 24.0489 14.2899 23.9974 15.4503Z" fill="white"/>
<path d="M15.0409 5.35065C11.9209 5.35065 9.3894 7.88194 9.3894 11.0021C9.3894 14.1224 11.9209 16.6536 15.0409 16.6536C18.1611 16.6536 20.6924 14.1224 20.6924 11.0021C20.6924 7.88194 18.1611 5.35065 15.0409 5.35065ZM15.0409 14.6681C13.0168 14.6681 11.3749 13.0264 11.3749 11.0021C11.3749 8.97786 13.0168 7.33617 15.0409 7.33617C17.0652 7.33617 18.7069 8.97786 18.7069 11.0021C18.7069 13.0264 17.0652 14.6681 15.0409 14.6681Z" fill="white"/>
<path d="M22.2353 5.12721C22.2353 5.8558 21.6446 6.44657 20.9158 6.44657C20.1872 6.44657 19.5964 5.8558 19.5964 5.12721C19.5964 4.39844 20.1872 3.80784 20.9158 3.80784C21.6446 3.80784 22.2353 4.39844 22.2353 5.12721Z" fill="white"/>
</g>
<defs>
<filter id="filter0_d_1_35" x="0" y="0" width="30" height="30" filterUnits="userSpaceOnUse" color-interpolation-filters="sRGB">
<feFlood flood-opacity="0" result="BackgroundImageFix"/>
<feColorMatrix in="SourceAlpha" type="matrix" values="0 0 0 0 0 0 0 0 0 0 0 0 0 0 0 0 0 0 127 0" result="hardAlpha"/>
<feOffset dy="4"/>
<feGaussianBlur stdDeviation="2"/>
<feComposite in2="hardAlpha" operator="out"/>
<feColorMatrix type="matrix" values="0 0 0 0 0 0 0 0 0 0 0 0 0 0 0 0 0 0 0.25 0"/>
<feBlend mode="normal" in2="BackgroundImageFix" result="effect1_dropShadow_1_35"/>
<feBlend mode="normal" in="SourceGraphic" in2="effect1_dropShadow_1_35" result="shape"/>
</filter>
<clipPath id="clip0_1_35">
<rect width="22" height="22" fill="white" transform="translate(4)"/>
</clipPath>
</defs>
</svg>
